<?xml version="1.0" encoding="iso-8859-1"?>
<!-- Uploaded to: SVG Repo, www.svgrepo.com, Generator: SVG Repo Mixer Tools -->
<svg fill="#000000" height="800px" width="800px" version="1.1" id="Layer_1" xmlns="http://www.w3.org/2000/svg" xmlns:xlink="http://www.w3.org/1999/xlink" 
	 viewBox="0 0 512.001 512.001" xml:space="preserve">
<g>
	<g>
		<path d="M409.187,341.213l-60.427-72.303c3.398-21.557,5.348-42.122,5.348-58.808c0-60.717-26.209-115.059-48.194-149.954
			c-22.264-35.337-43.74-57.013-44.645-57.918C259.846,0.802,257.914,0,255.898,0s-3.948,0.802-5.372,2.229
			c-0.904,0.906-22.381,22.58-44.645,57.918c-21.986,34.896-48.194,89.239-48.194,149.954c0,16.737,1.964,37.38,5.382,59.012
			l-60.255,72.098c-3.581,4.282-4.443,10.133-2.248,15.269l6.729,15.747c1.55,3.626,4.419,6.431,8.078,7.9
			c1.783,0.715,3.648,1.071,5.508,1.071c1.96,0,3.913-0.396,5.755-1.183l57.321-24.157c5.645,16.492,11.396,29.191,17.133,37.805
			c3.369,5.058,9.053,8.077,15.205,8.077h79.209c6.153,0,11.836-3.019,15.205-8.077c5.738-8.616,11.49-21.318,17.135-37.813
			l57.486,24.15c1.887,0.806,3.849,1.188,5.781,1.188c5.736,0,11.203-3.362,13.597-8.961l6.728-15.747
			C413.629,351.346,412.767,345.496,409.187,341.213z M255.898,18.722c6.316,7.036,17.474,20.206,29.541,37.881h-59.082
			C238.425,38.928,249.582,25.758,255.898,18.722z M121.088,365.884l-6.467-15.134l51.884-62.082
			c3.481,18.013,7.842,36.101,12.81,52.677L121.088,365.884z M298.076,385.252c-0.548,0.823-1.51,1.313-2.573,1.313h-79.209
			c-1.063,0-2.026-0.491-2.573-1.313c-4.697-7.052-9.685-17.999-14.601-31.989h113.558
			C307.761,367.252,302.773,378.199,298.076,385.252z M317.616,338.085H194.18c-12.447-41.203-21.316-94.1-21.316-127.984
			c0-55.1,23.228-105.052,43.654-138.321h78.758c20.426,33.267,43.655,83.22,43.655,138.321
			C338.932,243.987,330.063,296.884,317.616,338.085z M390.912,365.884l-58.429-24.546c4.985-16.635,9.359-34.792,12.846-52.868
			l52.05,62.281L390.912,365.884z"/>
	</g>
</g>
<g>
	<g>
		<path d="M256,107.068c-16.991,0-30.815,13.823-30.815,30.815c0,16.991,13.823,30.814,30.816,30.814
			c16.991,0,30.814-13.823,30.814-30.814C286.815,120.891,272.992,107.068,256,107.068z M256,153.52
			c-8.623,0-15.638-7.016-15.638-15.637s7.015-15.637,15.638-15.637c8.623,0,15.637,7.016,15.637,15.637S264.623,153.52,256,153.52z
			"/>
	</g>
</g>
<g>
	<g>
		<path d="M298.135,101.704c-9.664-11.254-23.132-18.072-37.923-19.197c-14.791-1.124-29.135,3.577-40.39,13.241
			c-11.254,9.664-18.072,23.132-19.197,37.923c-1.124,14.791,3.578,29.135,13.241,40.389c9.664,11.255,23.132,18.074,37.923,19.198
			c1.438,0.109,2.872,0.163,4.299,0.163c13.253,0,25.932-4.681,36.091-13.405c11.255-9.664,18.072-23.132,19.197-37.923
			C312.5,127.303,307.799,112.959,298.135,101.704z M296.242,140.943c-0.818,10.749-5.772,20.537-13.951,27.56
			c-8.178,7.022-18.601,10.435-29.351,9.623c-10.749-0.818-20.537-5.771-27.56-13.951c-7.023-8.178-10.441-18.603-9.623-29.352
			c0.818-10.749,5.772-20.537,13.951-27.56c7.383-6.34,16.596-9.742,26.227-9.742c1.037,0,2.08,0.039,3.124,0.119
			c10.749,0.818,20.537,5.771,27.56,13.95C293.641,119.77,297.059,130.194,296.242,140.943z"/>
	</g>
</g>
<g>
	<g>
		<path d="M289.78,411.353c-4.191,0-7.589,3.397-7.589,7.589v85.471c0,4.192,3.398,7.589,7.589,7.589
			c4.191,0,7.589-3.397,7.589-7.589v-85.471C297.369,414.75,293.971,411.353,289.78,411.353z"/>
	</g>
</g>
<g>
	<g>
		<path d="M255.392,411.353c-4.191,0-7.589,3.397-7.589,7.589v50.724c0,4.192,3.398,7.589,7.589,7.589
			c4.191,0,7.589-3.397,7.589-7.589v-50.724C262.981,414.75,259.583,411.353,255.392,411.353z"/>
	</g>
</g>
<g>
	<g>
		<path d="M221.003,411.353c-4.191,0-7.589,3.397-7.589,7.589v85.471c0,4.192,3.398,7.589,7.589,7.589s7.589-3.397,7.589-7.589
			v-85.471C228.591,414.75,225.194,411.353,221.003,411.353z"/>
	</g>
</g>
</svg>